<svg width="333" height="18" viewBox="0 0 333 18" fill="none" xmlns="http://www.w3.org/2000/svg">
<line y1="8.5" x2="120.401" y2="8.5" stroke="#828282"/>
<path d="M139.555 8.63636C139.555 5.875 137.936 4.15341 135.703 4.15341C133.47 4.15341 131.851 5.875 131.851 8.63636C131.851 11.3977 133.47 13.1193 135.703 13.1193C137.936 13.1193 139.555 11.3977 139.555 8.63636ZM138.532 8.63636C138.532 10.9034 137.288 12.1307 135.703 12.1307C134.118 12.1307 132.873 10.9034 132.873 8.63636C132.873 6.36932 134.118 5.14205 135.703 5.14205C137.288 5.14205 138.532 6.36932 138.532 8.63636ZM141.196 13H142.202V8.85795C142.202 7.97159 142.9 7.32386 143.855 7.32386C144.123 7.32386 144.4 7.375 144.469 7.39205V6.36932C144.354 6.3608 144.089 6.35227 143.94 6.35227C143.156 6.35227 142.474 6.79545 142.236 7.44318H142.167V6.45455H141.196V13ZM150.041 4.27273H149.036V13H150.041V4.27273ZM154.542 13.1364C156.315 13.1364 157.508 11.7898 157.508 9.76136C157.508 7.71591 156.315 6.36932 154.542 6.36932C152.77 6.36932 151.577 7.71591 151.577 9.76136C151.577 11.7898 152.77 13.1364 154.542 13.1364ZM154.542 12.233C153.196 12.233 152.582 11.0739 152.582 9.76136C152.582 8.44886 153.196 7.27273 154.542 7.27273C155.889 7.27273 156.503 8.44886 156.503 9.76136C156.503 11.0739 155.889 12.233 154.542 12.233ZM161.686 15.5909C163.254 15.5909 164.515 14.875 164.515 13.1875V6.45455H163.544V7.49432H163.441C163.22 7.15341 162.811 6.36932 161.532 6.36932C159.879 6.36932 158.737 7.68182 158.737 9.69318C158.737 11.7386 159.93 12.8977 161.515 12.8977C162.794 12.8977 163.203 12.1477 163.424 11.7898H163.509V13.1193C163.509 14.2102 162.742 14.7045 161.686 14.7045C160.497 14.7045 160.079 14.0781 159.811 13.7159L159.009 14.2784C159.419 14.9645 160.224 15.5909 161.686 15.5909ZM161.651 11.9943C160.39 11.9943 159.742 11.0398 159.742 9.67614C159.742 8.34659 160.373 7.27273 161.651 7.27273C162.879 7.27273 163.526 8.26136 163.526 9.67614C163.526 11.125 162.862 11.9943 161.651 11.9943ZM166.356 13H167.362V6.45455H166.356V13ZM166.867 5.36364C167.259 5.36364 167.583 5.05682 167.583 4.68182C167.583 4.30682 167.259 4 166.867 4C166.475 4 166.151 4.30682 166.151 4.68182C166.151 5.05682 166.475 5.36364 166.867 5.36364ZM170.209 9.0625C170.209 7.92045 170.917 7.27273 171.88 7.27273C172.813 7.27273 173.38 7.8821 173.38 8.90909V13H174.385V8.84091C174.385 7.17045 173.495 6.36932 172.17 6.36932C171.181 6.36932 170.567 6.8125 170.26 7.47727H170.175V6.45455H169.204V13H170.209V9.0625ZM181.081 13H182.07L183.502 7.97159H183.604L185.036 13H186.024L188.019 6.45455H186.962L185.547 11.4489H185.479L184.098 6.45455H183.024L181.627 11.4659H181.558L180.144 6.45455H179.087L181.081 13ZM189.348 13H190.354V6.45455H189.348V13ZM189.86 5.36364C190.252 5.36364 190.575 5.05682 190.575 4.68182C190.575 4.30682 190.252 4 189.86 4C189.468 4 189.144 4.30682 189.144 4.68182C189.144 5.05682 189.468 5.36364 189.86 5.36364ZM195.042 6.45455H193.645V4.88636H192.639V6.45455H191.65V7.30682H192.639V11.3977C192.639 12.5398 193.559 13.0852 194.412 13.0852C194.787 13.0852 195.025 13.017 195.162 12.9659L194.957 12.0625C194.872 12.0795 194.736 12.1136 194.514 12.1136C194.071 12.1136 193.645 11.9773 193.645 11.125V7.30682H195.042V6.45455ZM197.702 9.0625C197.702 7.92045 198.43 7.27273 199.423 7.27273C200.369 7.27273 200.94 7.86932 200.94 8.90909V13H201.946V8.84091C201.946 7.15767 201.051 6.36932 199.713 6.36932C198.682 6.36932 198.094 6.79972 197.787 7.47727H197.702V4.27273H196.696V13H197.702V9.0625Z" fill="#333333"/>
<line x1="212.599" y1="8.5" x2="333" y2="8.5" stroke="#828282"/>
</svg>
